<mxfile host="app.diagrams.net" modified="2023-09-01T18:34:17.732Z" agent="Mozilla/5.0 (Windows NT 10.0; Win64; x64) AppleWebKit/537.36 (KHTML, like Gecko) Chrome/116.0.0.0 Safari/537.36" etag="HGOhGKZhfP5iajbYmbZR" version="21.7.1" type="device">
  <diagram name="PÃ¡gina-1" id="1eDgFsus_kO3PejcLk6C">
    <mxGraphModel dx="2297" dy="634" grid="1" gridSize="10" guides="1" tooltips="1" connect="1" arrows="1" fold="1" page="1" pageScale="1" pageWidth="827" pageHeight="1169" math="0" shadow="0">
      <root>
        <mxCell id="0" />
        <mxCell id="1" parent="0" />
        <mxCell id="yxRAowO7pgDiNdoX-8gX-1" value="20" style="rounded=0;whiteSpace=wrap;html=1;" parent="1" vertex="1">
          <mxGeometry x="600" y="390" width="60" height="60" as="geometry" />
        </mxCell>
        <mxCell id="yxRAowO7pgDiNdoX-8gX-2" value="51" style="rounded=0;whiteSpace=wrap;html=1;" parent="1" vertex="1">
          <mxGeometry x="680" y="390" width="60" height="60" as="geometry" />
        </mxCell>
        <mxCell id="yxRAowO7pgDiNdoX-8gX-3" value="" style="rounded=0;whiteSpace=wrap;html=1;" parent="1" vertex="1">
          <mxGeometry x="760" y="390" width="60" height="60" as="geometry" />
        </mxCell>
        <mxCell id="yxRAowO7pgDiNdoX-8gX-4" value="" style="rounded=0;whiteSpace=wrap;html=1;" parent="1" vertex="1">
          <mxGeometry x="660" y="390" width="20" height="60" as="geometry" />
        </mxCell>
        <mxCell id="yxRAowO7pgDiNdoX-8gX-5" value="" style="rounded=0;whiteSpace=wrap;html=1;" parent="1" vertex="1">
          <mxGeometry x="740" y="390" width="20" height="60" as="geometry" />
        </mxCell>
        <mxCell id="yxRAowO7pgDiNdoX-8gX-6" value="" style="rounded=0;whiteSpace=wrap;html=1;" parent="1" vertex="1">
          <mxGeometry x="820" y="390" width="20" height="60" as="geometry" />
        </mxCell>
        <mxCell id="yxRAowO7pgDiNdoX-8gX-7" value="11" style="rounded=0;whiteSpace=wrap;html=1;" parent="1" vertex="1">
          <mxGeometry x="170" y="540" width="60" height="60" as="geometry" />
        </mxCell>
        <mxCell id="yxRAowO7pgDiNdoX-8gX-8" value="15" style="rounded=0;whiteSpace=wrap;html=1;" parent="1" vertex="1">
          <mxGeometry x="250" y="540" width="60" height="60" as="geometry" />
        </mxCell>
        <mxCell id="yxRAowO7pgDiNdoX-8gX-9" value="" style="rounded=0;whiteSpace=wrap;html=1;" parent="1" vertex="1">
          <mxGeometry x="330" y="540" width="60" height="60" as="geometry" />
        </mxCell>
        <mxCell id="yxRAowO7pgDiNdoX-8gX-10" value="" style="rounded=0;whiteSpace=wrap;html=1;" parent="1" vertex="1">
          <mxGeometry x="230" y="540" width="20" height="60" as="geometry" />
        </mxCell>
        <mxCell id="yxRAowO7pgDiNdoX-8gX-11" value="" style="rounded=0;whiteSpace=wrap;html=1;" parent="1" vertex="1">
          <mxGeometry x="310" y="540" width="20" height="60" as="geometry" />
        </mxCell>
        <mxCell id="yxRAowO7pgDiNdoX-8gX-12" value="" style="rounded=0;whiteSpace=wrap;html=1;" parent="1" vertex="1">
          <mxGeometry x="390" y="540" width="20" height="60" as="geometry" />
        </mxCell>
        <mxCell id="yxRAowO7pgDiNdoX-8gX-13" value="11" style="rounded=0;whiteSpace=wrap;html=1;" parent="1" vertex="1">
          <mxGeometry x="-50" y="670" width="60" height="60" as="geometry" />
        </mxCell>
        <mxCell id="yxRAowO7pgDiNdoX-8gX-14" value="14" style="rounded=0;whiteSpace=wrap;html=1;" parent="1" vertex="1">
          <mxGeometry x="10" y="670" width="60" height="60" as="geometry" />
        </mxCell>
        <mxCell id="yxRAowO7pgDiNdoX-8gX-15" value="" style="rounded=0;whiteSpace=wrap;html=1;" parent="1" vertex="1">
          <mxGeometry x="70" y="670" width="60" height="60" as="geometry" />
        </mxCell>
        <mxCell id="yxRAowO7pgDiNdoX-8gX-19" value="15" style="rounded=0;whiteSpace=wrap;html=1;" parent="1" vertex="1">
          <mxGeometry x="190" y="750" width="60" height="60" as="geometry" />
        </mxCell>
        <mxCell id="yxRAowO7pgDiNdoX-8gX-20" value="16" style="rounded=0;whiteSpace=wrap;html=1;" parent="1" vertex="1">
          <mxGeometry x="250" y="750" width="60" height="60" as="geometry" />
        </mxCell>
        <mxCell id="yxRAowO7pgDiNdoX-8gX-21" value="19" style="rounded=0;whiteSpace=wrap;html=1;" parent="1" vertex="1">
          <mxGeometry x="310" y="750" width="60" height="60" as="geometry" />
        </mxCell>
        <mxCell id="yxRAowO7pgDiNdoX-8gX-25" value="4" style="rounded=0;whiteSpace=wrap;html=1;" parent="1" vertex="1">
          <mxGeometry x="-200" y="560" width="60" height="60" as="geometry" />
        </mxCell>
        <mxCell id="yxRAowO7pgDiNdoX-8gX-26" value="7" style="rounded=0;whiteSpace=wrap;html=1;" parent="1" vertex="1">
          <mxGeometry x="-140" y="560" width="60" height="60" as="geometry" />
        </mxCell>
        <mxCell id="yxRAowO7pgDiNdoX-8gX-27" value="10" style="rounded=0;whiteSpace=wrap;html=1;" parent="1" vertex="1">
          <mxGeometry x="-80" y="560" width="60" height="60" as="geometry" />
        </mxCell>
        <mxCell id="yxRAowO7pgDiNdoX-8gX-31" value="24" style="rounded=0;whiteSpace=wrap;html=1;" parent="1" vertex="1">
          <mxGeometry x="600" y="590" width="60" height="60" as="geometry" />
        </mxCell>
        <mxCell id="yxRAowO7pgDiNdoX-8gX-32" value="&lt;b&gt;32&lt;/b&gt;" style="rounded=0;whiteSpace=wrap;html=1;" parent="1" vertex="1">
          <mxGeometry x="680" y="590" width="60" height="60" as="geometry" />
        </mxCell>
        <mxCell id="yxRAowO7pgDiNdoX-8gX-33" value="40" style="rounded=0;whiteSpace=wrap;html=1;" parent="1" vertex="1">
          <mxGeometry x="760" y="590" width="60" height="60" as="geometry" />
        </mxCell>
        <mxCell id="yxRAowO7pgDiNdoX-8gX-34" value="" style="rounded=0;whiteSpace=wrap;html=1;" parent="1" vertex="1">
          <mxGeometry x="660" y="590" width="20" height="60" as="geometry" />
        </mxCell>
        <mxCell id="yxRAowO7pgDiNdoX-8gX-35" value="" style="rounded=0;whiteSpace=wrap;html=1;" parent="1" vertex="1">
          <mxGeometry x="740" y="590" width="20" height="60" as="geometry" />
        </mxCell>
        <mxCell id="yxRAowO7pgDiNdoX-8gX-36" value="" style="rounded=0;whiteSpace=wrap;html=1;" parent="1" vertex="1">
          <mxGeometry x="820" y="590" width="20" height="60" as="geometry" />
        </mxCell>
        <mxCell id="yxRAowO7pgDiNdoX-8gX-37" value="20" style="rounded=0;whiteSpace=wrap;html=1;" parent="1" vertex="1">
          <mxGeometry x="470" y="820" width="60" height="60" as="geometry" />
        </mxCell>
        <mxCell id="yxRAowO7pgDiNdoX-8gX-38" value="24" style="rounded=0;whiteSpace=wrap;html=1;" parent="1" vertex="1">
          <mxGeometry x="530" y="820" width="60" height="60" as="geometry" />
        </mxCell>
        <mxCell id="yxRAowO7pgDiNdoX-8gX-39" value="" style="rounded=0;whiteSpace=wrap;html=1;" parent="1" vertex="1">
          <mxGeometry x="590" y="820" width="60" height="60" as="geometry" />
        </mxCell>
        <mxCell id="yxRAowO7pgDiNdoX-8gX-43" value="25" style="rounded=0;whiteSpace=wrap;html=1;" parent="1" vertex="1">
          <mxGeometry x="620" y="910" width="60" height="60" as="geometry" />
        </mxCell>
        <mxCell id="yxRAowO7pgDiNdoX-8gX-44" value="28" style="rounded=0;whiteSpace=wrap;html=1;" parent="1" vertex="1">
          <mxGeometry x="680" y="910" width="60" height="60" as="geometry" />
        </mxCell>
        <mxCell id="yxRAowO7pgDiNdoX-8gX-45" value="&lt;b&gt;&lt;font style=&quot;font-size: 18px;&quot;&gt;30&lt;/font&gt;&lt;/b&gt;" style="rounded=0;whiteSpace=wrap;html=1;" parent="1" vertex="1">
          <mxGeometry x="740" y="910" width="60" height="60" as="geometry" />
        </mxCell>
        <mxCell id="yxRAowO7pgDiNdoX-8gX-49" value="34" style="rounded=0;whiteSpace=wrap;html=1;" parent="1" vertex="1">
          <mxGeometry x="920" y="910" width="60" height="60" as="geometry" />
        </mxCell>
        <mxCell id="yxRAowO7pgDiNdoX-8gX-50" value="38" style="rounded=0;whiteSpace=wrap;html=1;" parent="1" vertex="1">
          <mxGeometry x="980" y="910" width="60" height="60" as="geometry" />
        </mxCell>
        <mxCell id="yxRAowO7pgDiNdoX-8gX-55" value="40" style="rounded=0;whiteSpace=wrap;html=1;" parent="1" vertex="1">
          <mxGeometry x="1000" y="800" width="60" height="60" as="geometry" />
        </mxCell>
        <mxCell id="yxRAowO7pgDiNdoX-8gX-56" value="43" style="rounded=0;whiteSpace=wrap;html=1;" parent="1" vertex="1">
          <mxGeometry x="1060" y="800" width="60" height="60" as="geometry" />
        </mxCell>
        <mxCell id="yxRAowO7pgDiNdoX-8gX-57" value="46" style="rounded=0;whiteSpace=wrap;html=1;" parent="1" vertex="1">
          <mxGeometry x="1120" y="800" width="60" height="60" as="geometry" />
        </mxCell>
        <mxCell id="yxRAowO7pgDiNdoX-8gX-61" value="60" style="rounded=0;whiteSpace=wrap;html=1;" parent="1" vertex="1">
          <mxGeometry x="1040" y="585" width="60" height="60" as="geometry" />
        </mxCell>
        <mxCell id="yxRAowO7pgDiNdoX-8gX-62" value="" style="rounded=0;whiteSpace=wrap;html=1;" parent="1" vertex="1">
          <mxGeometry x="1120" y="585" width="60" height="60" as="geometry" />
        </mxCell>
        <mxCell id="yxRAowO7pgDiNdoX-8gX-63" value="" style="rounded=0;whiteSpace=wrap;html=1;" parent="1" vertex="1">
          <mxGeometry x="1200" y="585" width="60" height="60" as="geometry" />
        </mxCell>
        <mxCell id="yxRAowO7pgDiNdoX-8gX-64" value="" style="rounded=0;whiteSpace=wrap;html=1;" parent="1" vertex="1">
          <mxGeometry x="1100" y="585" width="20" height="60" as="geometry" />
        </mxCell>
        <mxCell id="yxRAowO7pgDiNdoX-8gX-65" value="" style="rounded=0;whiteSpace=wrap;html=1;" parent="1" vertex="1">
          <mxGeometry x="1180" y="585" width="20" height="60" as="geometry" />
        </mxCell>
        <mxCell id="yxRAowO7pgDiNdoX-8gX-66" value="" style="rounded=0;whiteSpace=wrap;html=1;" parent="1" vertex="1">
          <mxGeometry x="1260" y="585" width="20" height="60" as="geometry" />
        </mxCell>
        <mxCell id="yxRAowO7pgDiNdoX-8gX-68" value="51" style="rounded=0;whiteSpace=wrap;html=1;" parent="1" vertex="1">
          <mxGeometry x="1210" y="700" width="60" height="60" as="geometry" />
        </mxCell>
        <mxCell id="yxRAowO7pgDiNdoX-8gX-69" value="55" style="rounded=0;whiteSpace=wrap;html=1;" parent="1" vertex="1">
          <mxGeometry x="1270" y="700" width="60" height="60" as="geometry" />
        </mxCell>
        <mxCell id="yxRAowO7pgDiNdoX-8gX-70" value="" style="rounded=0;whiteSpace=wrap;html=1;" parent="1" vertex="1">
          <mxGeometry x="1330" y="700" width="60" height="60" as="geometry" />
        </mxCell>
        <mxCell id="yxRAowO7pgDiNdoX-8gX-74" value="60" style="rounded=0;whiteSpace=wrap;html=1;" parent="1" vertex="1">
          <mxGeometry x="1410" y="640" width="60" height="60" as="geometry" />
        </mxCell>
        <mxCell id="yxRAowO7pgDiNdoX-8gX-75" value="68" style="rounded=0;whiteSpace=wrap;html=1;" parent="1" vertex="1">
          <mxGeometry x="1470" y="640" width="60" height="60" as="geometry" />
        </mxCell>
        <mxCell id="yxRAowO7pgDiNdoX-8gX-76" value="80" style="rounded=0;whiteSpace=wrap;html=1;" parent="1" vertex="1">
          <mxGeometry x="1530" y="640" width="60" height="60" as="geometry" />
        </mxCell>
        <mxCell id="yxRAowO7pgDiNdoX-8gX-80" value="" style="endArrow=classic;html=1;rounded=0;entryX=0.75;entryY=0;entryDx=0;entryDy=0;exitX=0.5;exitY=1;exitDx=0;exitDy=0;" parent="1" source="yxRAowO7pgDiNdoX-8gX-4" target="yxRAowO7pgDiNdoX-8gX-32" edge="1">
          <mxGeometry width="50" height="50" relative="1" as="geometry">
            <mxPoint x="640" y="690" as="sourcePoint" />
            <mxPoint x="690" y="640" as="targetPoint" />
          </mxGeometry>
        </mxCell>
        <mxCell id="yxRAowO7pgDiNdoX-8gX-87" value="" style="endArrow=classic;html=1;rounded=0;entryX=0;entryY=0;entryDx=0;entryDy=0;exitX=0.5;exitY=1;exitDx=0;exitDy=0;" parent="1" source="yxRAowO7pgDiNdoX-8gX-5" target="yxRAowO7pgDiNdoX-8gX-62" edge="1">
          <mxGeometry width="50" height="50" relative="1" as="geometry">
            <mxPoint x="640" y="690" as="sourcePoint" />
            <mxPoint x="690" y="640" as="targetPoint" />
          </mxGeometry>
        </mxCell>
        <mxCell id="yxRAowO7pgDiNdoX-8gX-94" value="" style="endArrow=classic;html=1;rounded=0;entryX=1;entryY=0.25;entryDx=0;entryDy=0;exitX=0.5;exitY=1;exitDx=0;exitDy=0;" parent="1" source="yxRAowO7pgDiNdoX-8gX-112" target="yxRAowO7pgDiNdoX-8gX-12" edge="1">
          <mxGeometry width="50" height="50" relative="1" as="geometry">
            <mxPoint x="723" y="460" as="sourcePoint" />
            <mxPoint x="735" y="600" as="targetPoint" />
          </mxGeometry>
        </mxCell>
        <mxCell id="yxRAowO7pgDiNdoX-8gX-95" value="" style="endArrow=classic;html=1;rounded=0;entryX=0.25;entryY=0;entryDx=0;entryDy=0;exitX=1;exitY=1;exitDx=0;exitDy=0;" parent="1" source="yxRAowO7pgDiNdoX-8gX-8" edge="1">
          <mxGeometry width="50" height="50" relative="1" as="geometry">
            <mxPoint x="640" y="460" as="sourcePoint" />
            <mxPoint x="335" y="750" as="targetPoint" />
          </mxGeometry>
        </mxCell>
        <mxCell id="yxRAowO7pgDiNdoX-8gX-96" value="" style="endArrow=classic;html=1;rounded=0;entryX=0.25;entryY=0;entryDx=0;entryDy=0;exitX=0.25;exitY=1;exitDx=0;exitDy=0;" parent="1" source="yxRAowO7pgDiNdoX-8gX-10" target="yxRAowO7pgDiNdoX-8gX-14" edge="1">
          <mxGeometry width="50" height="50" relative="1" as="geometry">
            <mxPoint x="650" y="470" as="sourcePoint" />
            <mxPoint x="430" y="575" as="targetPoint" />
          </mxGeometry>
        </mxCell>
        <mxCell id="yxRAowO7pgDiNdoX-8gX-98" value="" style="endArrow=classic;html=1;rounded=0;entryX=1;entryY=0.5;entryDx=0;entryDy=0;" parent="1" source="yxRAowO7pgDiNdoX-8gX-110" edge="1">
          <mxGeometry width="50" height="50" relative="1" as="geometry">
            <mxPoint x="660" y="480" as="sourcePoint" />
            <mxPoint x="-20" y="590" as="targetPoint" />
          </mxGeometry>
        </mxCell>
        <mxCell id="yxRAowO7pgDiNdoX-8gX-99" value="" style="endArrow=classic;html=1;rounded=0;entryX=0.25;entryY=0;entryDx=0;entryDy=0;exitX=0.5;exitY=1;exitDx=0;exitDy=0;" parent="1" source="yxRAowO7pgDiNdoX-8gX-109" target="yxRAowO7pgDiNdoX-8gX-38" edge="1">
          <mxGeometry width="50" height="50" relative="1" as="geometry">
            <mxPoint x="670" y="490" as="sourcePoint" />
            <mxPoint x="450" y="595" as="targetPoint" />
          </mxGeometry>
        </mxCell>
        <mxCell id="yxRAowO7pgDiNdoX-8gX-100" value="" style="endArrow=classic;html=1;rounded=0;entryX=1;entryY=0;entryDx=0;entryDy=0;exitX=0.5;exitY=1;exitDx=0;exitDy=0;" parent="1" source="yxRAowO7pgDiNdoX-8gX-34" edge="1">
          <mxGeometry width="50" height="50" relative="1" as="geometry">
            <mxPoint x="680" y="500" as="sourcePoint" />
            <mxPoint x="760" y="910" as="targetPoint" />
          </mxGeometry>
        </mxCell>
        <mxCell id="yxRAowO7pgDiNdoX-8gX-101" value="" style="endArrow=classic;html=1;rounded=0;entryX=0.25;entryY=0;entryDx=0;entryDy=0;exitX=0.25;exitY=1;exitDx=0;exitDy=0;" parent="1" source="yxRAowO7pgDiNdoX-8gX-35" target="yxRAowO7pgDiNdoX-8gX-49" edge="1">
          <mxGeometry width="50" height="50" relative="1" as="geometry">
            <mxPoint x="690" y="510" as="sourcePoint" />
            <mxPoint x="470" y="615" as="targetPoint" />
          </mxGeometry>
        </mxCell>
        <mxCell id="yxRAowO7pgDiNdoX-8gX-102" value="" style="endArrow=classic;html=1;rounded=0;exitX=0.75;exitY=1;exitDx=0;exitDy=0;" parent="1" source="yxRAowO7pgDiNdoX-8gX-36" target="yxRAowO7pgDiNdoX-8gX-55" edge="1">
          <mxGeometry width="50" height="50" relative="1" as="geometry">
            <mxPoint x="700" y="520" as="sourcePoint" />
            <mxPoint x="480" y="625" as="targetPoint" />
          </mxGeometry>
        </mxCell>
        <mxCell id="yxRAowO7pgDiNdoX-8gX-103" value="" style="endArrow=classic;html=1;rounded=0;exitX=0.25;exitY=1;exitDx=0;exitDy=0;" parent="1" source="yxRAowO7pgDiNdoX-8gX-107" target="yxRAowO7pgDiNdoX-8gX-68" edge="1">
          <mxGeometry width="50" height="50" relative="1" as="geometry">
            <mxPoint x="710" y="530" as="sourcePoint" />
            <mxPoint x="490" y="635" as="targetPoint" />
          </mxGeometry>
        </mxCell>
        <mxCell id="yxRAowO7pgDiNdoX-8gX-104" value="" style="endArrow=classic;html=1;rounded=0;exitX=0.25;exitY=1;exitDx=0;exitDy=0;" parent="1" source="yxRAowO7pgDiNdoX-8gX-64" target="yxRAowO7pgDiNdoX-8gX-74" edge="1">
          <mxGeometry width="50" height="50" relative="1" as="geometry">
            <mxPoint x="720" y="540" as="sourcePoint" />
            <mxPoint x="500" y="645" as="targetPoint" />
          </mxGeometry>
        </mxCell>
        <mxCell id="yxRAowO7pgDiNdoX-8gX-107" value="" style="rounded=0;whiteSpace=wrap;html=1;" parent="1" vertex="1">
          <mxGeometry x="1020" y="585" width="20" height="60" as="geometry" />
        </mxCell>
        <mxCell id="yxRAowO7pgDiNdoX-8gX-109" value="" style="rounded=0;whiteSpace=wrap;html=1;" parent="1" vertex="1">
          <mxGeometry x="580" y="590" width="20" height="60" as="geometry" />
        </mxCell>
        <mxCell id="yxRAowO7pgDiNdoX-8gX-111" value="" style="endArrow=classic;html=1;rounded=0;entryX=1;entryY=0.5;entryDx=0;entryDy=0;" parent="1" source="yxRAowO7pgDiNdoX-8gX-7" target="yxRAowO7pgDiNdoX-8gX-110" edge="1">
          <mxGeometry width="50" height="50" relative="1" as="geometry">
            <mxPoint x="170" y="573" as="sourcePoint" />
            <mxPoint x="-20" y="590" as="targetPoint" />
          </mxGeometry>
        </mxCell>
        <mxCell id="yxRAowO7pgDiNdoX-8gX-110" value="" style="rounded=0;whiteSpace=wrap;html=1;" parent="1" vertex="1">
          <mxGeometry x="150" y="540" width="20" height="60" as="geometry" />
        </mxCell>
        <mxCell id="yxRAowO7pgDiNdoX-8gX-112" value="" style="rounded=0;whiteSpace=wrap;html=1;" parent="1" vertex="1">
          <mxGeometry x="580" y="390" width="20" height="60" as="geometry" />
        </mxCell>
        <mxCell id="EETKnJNls1vOFN3rVTZL-1" value="&lt;b&gt;&lt;font style=&quot;font-size: 18px;&quot;&gt;32&lt;/font&gt;&lt;/b&gt;" style="rounded=0;whiteSpace=wrap;html=1;" vertex="1" parent="1">
          <mxGeometry x="860" y="910" width="60" height="60" as="geometry" />
        </mxCell>
      </root>
    </mxGraphModel>
  </diagram>
</mxfile>
